<svg width="187" height="185" viewBox="0 0 187 185" fill="none" xmlns="http://www.w3.org/2000/svg">
<path d="M84.8657 71.9493L67.5467 56.4956L67.6871 79.942L8.45935 51.8624L56.8062 95.4759L38.6047 106.557L55.1315 114.349L0.246094 154.022L63.1141 131.518L42.6863 178.19L78.6381 142.399L84.8356 168.232L97.5215 144.074L121.67 184.317L114.65 136.071L140.062 142.559L125.601 120.557L186.413 114.881L127.246 101.684L157.572 77.124L119.253 84.4948L135.148 28.2355L103.749 73.6341L94.1119 0.276367L84.8657 71.9493ZM109.556 74.4163L107.028 94.2926L127.266 90.3915L111.22 103.358L144.775 112.384L110.338 113.306L118.01 124.919L104.592 121.5L109.917 147.573L95.5159 125.782L89.0175 139.45L85.5476 124.899L66.5639 143.793L77.3545 119.153L44.1504 131.037L73.1325 110.077L61.0984 105.394L74.0551 100.109L45.8252 77.1942L79.8014 91.9159L79.7312 79.5308L88.8771 87.6939L93.7609 49.8267L98.8453 88.5664L109.556 74.4163Z" fill="#23272D"/>
</svg>
