<svg width="579" height="61" viewBox="0 0 579 61" fill="none" xmlns="http://www.w3.org/2000/svg">
<path fill-rule="evenodd" clip-rule="evenodd" d="M34.7853 23.383L22.8047 22.4781C19.2525 22.2268 17.5184 20.7356 17.5184 18.1803C17.5184 15.1224 20.0317 13.5471 27.8483 13.5471C35.0366 13.5471 37.8432 14.9547 39.1669 19.9144H54.5405C54.1216 11.6454 51.1474 6.11602 45.9447 3.46858C40.742 0.821153 35.7822 0 28.4263 0C9.15704 0 0.829409 6.11593 0.829409 18.2556C0.829409 29.0883 7.35581 35.0114 20.4924 36.0252L32.5568 36.9386C36.7458 37.2654 38.3459 38.7566 38.3459 41.4794C38.3459 45.0317 35.4471 46.8494 27.4546 46.8494C20.2579 46.8494 16.2951 45.1153 15.3065 40.4907H0C0.410519 48.6676 3.35123 54.1218 8.42826 56.853C13.631 59.4921 18.8421 60.3212 26.5247 60.3212H26.6084C46.5228 60.3212 55.4452 53.8785 55.4452 40.9849C55.4452 29.8422 48.9189 24.6397 34.7853 23.383ZM113.095 7.53126C109.291 3.34229 103.51 1.25598 95.7356 1.25598H63.514V59.0638H80.1192V46.5894H95.7607C103.535 46.5894 109.316 44.52 113.12 40.3059C116.923 36.0918 118.901 30.6374 118.901 23.8597C118.901 17.0819 116.974 11.7454 113.095 7.53126ZM93.926 31.9112H80.1192V15.8421H93.926C99.4638 15.8421 102.304 19.0172 102.304 23.8597C102.27 28.3335 99.9497 31.9112 93.926 31.9112ZM210.855 1.25598C226.397 1.25598 233.995 9.68439 233.995 22.821C233.995 30.8387 231.315 36.6195 225.919 40.3644L235.671 59.1227H219.125L211.517 44.3271H195.239V59.0638H178.634V1.25598H210.855ZM195.206 29.6825H209.063C215.262 29.6825 217.273 26.8843 217.273 22.7875C217.273 18.6907 215.262 15.8421 209.063 15.8421H195.206V29.6825ZM305.578 1.25598H285.655L258.586 35.6977V1.25598H242.224V59.0973H260.027L271.672 44.3103L283.318 59.0973H305.435L282.832 30.1767L305.578 1.25598ZM396.803 59.0638V1.25598H429.729L453.547 59.0638H436.197L433.306 52.0432H413.408V59.0638H396.803ZM413.408 15.8421V37.5242L427.349 37.4906L418.435 15.8421H413.408ZM442.598 15.8839H462.429V59.0973H479.042V15.8839H498.789V1.25598H442.598V15.8839ZM557.092 1.25598V15.8001H523.463V23.8178H556.104V36.7031H523.463V44.2265H557.092V59.0973H506.858V1.25598H557.092ZM350.148 37.499H349.16L341.703 1.25598H310.646V59.0973H327.176V15.8839H328.374L337.774 59.1225H361.383L370.926 15.8839H372.132V59.0973H388.737V1.25598H357.621L350.148 37.499ZM561.129 3.27618V1.28223H568.51V3.27618H565.871V10.3472H563.776V3.27618H561.129ZM576.294 1.28223L574.25 7.24732L572.197 1.28223H569.474V10.3472H571.535V5.34553L573.202 10.2634H575.247L576.939 5.31202V10.3472H579V1.28223H576.294ZM113.79 59.0638L137.6 1.25598H170.534V59.0638H153.929V52.0432H134.031L131.141 59.0638H113.79ZM148.936 15.8757L140.022 37.5242H153.962V15.8757H148.936Z" fill="#23272D"/>
</svg>
